<svg width="512" height="512" viewBox="0 0 512 512" fill="none" xmlns="http://www.w3.org/2000/svg">
<path fill-rule="evenodd" clip-rule="evenodd" d="M180.706 429.184C180.706 416.709 190.802 406.596 203.347 406.596H489.359C501.864 406.596 512 416.735 512 429.184C512 441.659 501.904 451.772 489.359 451.772H203.347C190.842 451.772 180.706 441.634 180.706 429.184ZM15.0589 286.125H143.059C151.375 286.125 158.118 292.868 158.118 301.184V406.618C158.118 439.847 131.118 466.831 97.9306 466.831H60.1871C26.9481 466.831 0 439.862 0 406.618V301.184C0 292.867 6.74249 286.125 15.0589 286.125ZM37.6469 210.831H120.471C128.787 210.831 135.53 217.573 135.53 225.89V263.537H22.588V225.89C22.588 217.573 29.3305 210.831 37.6469 210.831ZM46.7735 68.9897L99.4794 46.4017C109.417 42.1432 120.47 49.4321 120.47 60.2426V188.242H37.6469V82.8306C37.6469 76.8067 41.2373 71.3629 46.7735 68.9897ZM404.721 384.007C441.757 363.456 466.824 323.953 466.824 278.595C466.824 212.061 412.887 158.125 346.353 158.125C279.819 158.125 225.883 212.062 225.883 278.595C225.883 323.953 250.949 363.456 287.985 384.007H228.497C203.46 356.033 188.236 319.092 188.236 278.595C188.236 191.269 259.027 120.478 346.353 120.478C433.679 120.478 504.471 191.269 504.471 278.595C504.471 319.092 489.247 356.033 464.209 384.007H404.721Z" fill="#E54D73"/>
</svg>
